# xmcd
#
# Track frame offsets: 
#        150
#        24292
#        37805
#        58052
#        75595
#        95845
#        107857
#        127705
#        150357
#        172157
#
# Disc length: 2584 seconds
#
# Revision: 3
# Processed by: cddbd v1.5.2PL0 Copyright (c) Steve Scherf et al.
# Submitted via: ExactAudioCopyFreeDBPlugin 1.0
#
DISCID=700a160a
DTITLE=Cris Williamson - The Changer And The Changed
DYEAR=1900
DGENRE=Country
TTITLE0=Waterfall
TTITLE1=Hurts Like The Devil
TTITLE2=Wild Things
TTITLE3=Sweet Woman
TTITLE4=Song Of The Soul
TTITLE5=Shooting Star
TTITLE6=Dream Child
TTITLE7=One of the Light
TTITLE8=Having Been Touched (Tender Lady)
TTITLE9=Sister
EXTD=
EXTT0=
EXTT1=
EXTT2=
EXTT3=
EXTT4=
EXTT5=
EXTT6=
EXTT7=
EXTT8=
EXTT9=
PLAYORDER=
